<svg width="24" height="26" viewBox="0 0 24 26" fill="none" xmlns="http://www.w3.org/2000/svg">
<path d="M2.625 6.95805H4.70833M4.70833 6.95805H21.375M4.70833 6.95805V21.5414C4.70833 22.0939 4.92783 22.6238 5.31853 23.0145C5.70923 23.4052 6.23913 23.6247 6.79167 23.6247H17.2083C17.7609 23.6247 18.2908 23.4052 18.6815 23.0145C19.0722 22.6238 19.2917 22.0939 19.2917 21.5414V6.95805M7.83333 6.95805V4.87472C7.83333 4.32218 8.05283 3.79228 8.44353 3.40158C8.83423 3.01088 9.36413 2.79138 9.91667 2.79138H14.0833C14.6359 2.79138 15.1658 3.01088 15.5565 3.40158C15.9472 3.79228 16.1667 4.32218 16.1667 4.87472V6.95805M9.91667 12.1664V18.4164M14.0833 12.1664V18.4164" stroke="#CC0000" stroke-width="2" stroke-linecap="round" stroke-linejoin="round"/>
</svg>
