<svg width="28" height="28" viewBox="0 0 28 28" fill="none" xmlns="http://www.w3.org/2000/svg">
<path d="M21.501 11.7486C21.501 13.8998 20.8025 15.887 19.6259 17.4993L25.5605 23.4375C26.1465 24.0233 26.1465 24.9748 25.5605 25.5606C24.9746 26.1465 24.0229 26.1465 23.437 25.5606L17.5023 19.6224C15.8897 20.8035 13.9021 21.4971 11.7505 21.4971C6.36428 21.4971 2 17.1337 2 11.7486C2 6.36342 6.36428 2 11.7505 2C17.1367 2 21.501 6.36342 21.501 11.7486ZM11.7505 18.4976C12.6369 18.4976 13.5147 18.323 14.3337 17.9838C15.1527 17.6447 15.8969 17.1475 16.5237 16.5208C17.1505 15.8941 17.6477 15.1501 17.987 14.3313C18.3262 13.5125 18.5008 12.6349 18.5008 11.7486C18.5008 10.8623 18.3262 9.98467 17.987 9.16584C17.6477 8.34701 17.1505 7.603 16.5237 6.9763C15.8969 6.3496 15.1527 5.85247 14.3337 5.5133C13.5147 5.17413 12.6369 4.99956 11.7505 4.99956C10.864 4.99956 9.98622 5.17413 9.16724 5.5133C8.34825 5.85247 7.6041 6.3496 6.97727 6.9763C6.35045 7.603 5.85322 8.34701 5.51398 9.16584C5.17475 9.98467 5.00015 10.8623 5.00015 11.7486C5.00015 12.6349 5.17475 13.5125 5.51398 14.3313C5.85322 15.1501 6.35045 15.8941 6.97727 16.5208C7.6041 17.1475 8.34825 17.6447 9.16724 17.9838C9.98622 18.323 10.864 18.4976 11.7505 18.4976Z" fill="white"/>
</svg>
